# xmcd
#
# Track frame offsets: 
#        150
#        19875
#        38205
#        56880
#        78207
#        95637
#        114062
#        134892
#        152810
#
# Disc length: 2247 seconds
#
# Revision: 4
# Processed by: cddbd v1.5.2PL0 Copyright (c) Steve Scherf et al.
# Submitted via: ExactAudioCopy v0.99pb4
#
DISCID=7408c509
DTITLE=Various Artist - Heart Of Soul
DYEAR=1988
DGENRE=Pop
TTITLE0=Michael Jackson With Siedah Garrett - I Just Can't Stop Loving
TTITLE0=You
TTITLE1=Gregory Abbott - Shake You Down
TTITLE2=Jets - You Got It All
TTITLE3=Kenny G - Don't Make Me Wait For Love
TTITLE4=Bruce Willis - Respect Yourself
TTITLE5=Robert Cray Band - Smoking Gun
TTITLE6=Lisa Lisa And Cult Jam - Lost In Emotion
TTITLE7=Gloria Estefan And Miami Sound Machine - Rhythm Is Gonna Get Y
TTITLE7=ou
TTITLE8=Beastie Boys - (You Gotta) Fight For Your Right (To Party)
EXTD=
EXTT0=
EXTT1=
EXTT2=
EXTT3=
EXTT4=
EXTT5=
EXTT6=
EXTT7=
EXTT8=
PLAYORDER=
